<svg width="238" height="227" viewBox="0 0 238 227" fill="none" xmlns="http://www.w3.org/2000/svg">
<g clip-path="url(#clip0_602_14)">
<path d="M89.1092 3.75278C93.1314 1.43055 98.087 1.43055 102.109 3.75278L184.718 51.4472C188.741 53.7694 191.218 58.0611 191.218 62.7056V158.094C191.218 162.739 188.741 167.031 184.718 169.353L102.109 217.047C98.087 219.369 93.1314 219.369 89.1092 217.047L6.50001 169.353C2.47779 167.031 0 162.739 0 158.094V62.7056C0 58.0611 2.47778 53.7695 6.5 51.4472L89.1092 3.75278Z" fill="#0D0D0D"/>
<path d="M89.3592 4.18579C93.2267 1.95288 97.9917 1.95288 101.859 4.18579L184.468 51.8802C188.336 54.1131 190.718 58.2397 190.718 62.7056V158.094C190.718 162.56 188.336 166.687 184.468 168.92L101.859 216.614C97.9917 218.847 93.2267 218.847 89.3592 216.614L6.75001 168.92C2.88249 166.687 0.5 162.56 0.5 158.094V62.7056C0.5 58.2397 2.88249 54.1131 6.75 51.8802L89.3592 4.18579Z" stroke="white" stroke-opacity="0.15"/>
<path fill-rule="evenodd" clip-rule="evenodd" d="M122.639 32.0368L95.6639 16.6001L68.7625 31.9944L68.4536 41.3224L48.8815 52.5225L40.8855 47.9469L13.8102 63.4407V94.1544L21.8061 99.1978V121.559L13.8102 126.134V157.187L40.5794 172.506L49.0341 168.193L68.6883 179.44V188.591L95.6639 204.028L122.639 188.591V179.44L142.646 167.991L150.642 172.567L177.518 157.187V126.218L169.522 121.289V98.8404L177.518 94.2647V63.4407L150.503 47.9818L142.248 52.4093L122.639 41.1881V32.0368ZM118.746 43.4485L142.187 56.8627L150.442 52.4351L173.624 65.7011V92.0043L165.628 96.58V123.465L173.624 128.395V154.927L150.642 168.078L142.646 163.503L118.746 177.179V186.331L95.6639 199.539L72.5815 186.331V177.179L49.1404 163.765L40.6856 168.078L17.7033 154.927V128.395L25.6992 123.819V97.0479L17.7033 92.0044V65.7011L40.8855 52.4351L48.8815 57.0108L72.2727 43.6252L72.5815 34.2972L95.6639 21.0884L118.746 34.2972V43.4485Z" fill="white"/>
<path fill-rule="evenodd" clip-rule="evenodd" d="M95.6634 43.4307L37.9186 76.8721V143.755L95.6634 177.196L153.408 143.755V76.8721L95.6634 43.4307ZM41.8055 79.1231L95.6634 47.9326L149.521 79.1231V141.504L95.6634 172.694L41.8055 141.504V79.1231Z" fill="white"/>
<path fill-rule="evenodd" clip-rule="evenodd" d="M76.9109 84.6494L64.9504 91.5226L44.9176 139.48L58.3985 147.227L69.4392 140.883L69.4769 140.791L76.638 144.906L80.8617 160.135L95.6652 168.642L108.301 161.381L88.6748 91.4094L76.9109 84.6494ZM65.9711 138.776L62.0091 141.053L63.5162 137.365L65.9711 138.776ZM57.5182 142.622L49.4129 137.964L67.2312 95.3075L75.0858 99.8211L92.773 162.88L83.9096 157.787L79.686 142.558L61.7555 132.254L57.5182 142.622ZM96.7642 163.911L93.6951 152.969L93.7241 152.961L89.5005 137.731L89.4268 137.751L78.6964 99.4947L86.0545 95.2663L104.122 159.682L96.7642 163.911ZM83.5864 92.585L76.6071 96.5957L69.9316 92.7597L76.9109 88.749L83.5864 92.585ZM70.8758 109.408L68.8166 114.807C68.4807 115.688 68.1973 116.438 67.9663 117.057L67.9631 117.066L64.7487 124.931L76.7025 131.8L73.664 120.844L73.6025 120.622L73.5965 120.602C73.4591 120.149 73.2015 119.158 72.8277 117.655L72.8277 117.654L72.826 117.648L72.8246 117.641C72.6409 116.823 72.4386 115.952 72.2177 115.027L70.8758 109.408ZM70.8405 124.001L70.9496 124.394L70.5529 124.166L70.8405 124.001Z" fill="white"/>
<path d="M66.694 124.217L73.6934 128.201L71.7691 121.328L71.7119 121.124C71.5555 120.612 71.2805 119.561 70.901 118.049L70.8943 118.022L70.8883 117.996C70.7023 117.176 70.4972 116.3 70.2728 115.369C69.93 116.259 69.6417 117.015 69.4075 117.637L69.3943 117.672L66.694 124.217Z" fill="white"/>
<path d="M171 91.7528C175.022 89.4306 179.978 89.4306 184 91.7528L231.189 118.997C235.211 121.319 237.689 125.611 237.689 130.256V184.744C237.689 189.389 235.211 193.681 231.189 196.003L184 223.247C179.978 225.569 175.022 225.569 171 223.247L123.811 196.003C119.789 193.681 117.311 189.389 117.311 184.744V130.256C117.311 125.611 119.789 121.319 123.811 118.997L171 91.7528Z" fill="#0D0D0D"/>
<path d="M177.802 209.846C176.364 209.846 175.022 209.463 173.775 208.792L161.026 201.219C159.108 200.164 160.067 199.781 160.642 199.589C163.23 198.726 163.71 198.535 166.394 197.001C166.682 196.809 167.065 196.905 167.353 197.097L177.131 202.944C177.514 203.136 177.993 203.136 178.281 202.944L216.53 180.8C216.913 180.608 217.105 180.225 217.105 179.745V135.553C217.105 135.074 216.913 134.69 216.53 134.498L178.281 112.45C177.897 112.258 177.418 112.258 177.131 112.45L138.881 134.498C138.498 134.69 138.306 135.169 138.306 135.553V179.745C138.306 180.129 138.498 180.608 138.881 180.8L149.33 186.839C154.986 189.715 158.533 186.36 158.533 183.005V139.387C158.533 138.812 159.013 138.237 159.684 138.237H164.573C165.148 138.237 165.723 138.716 165.723 139.387V183.005C165.723 190.578 161.601 194.988 154.411 194.988C152.206 194.988 150.481 194.988 145.592 192.591L135.526 186.839C133.034 185.401 131.5 182.717 131.5 179.841V135.649C131.5 132.773 133.034 130.089 135.526 128.651L173.775 106.507C176.172 105.164 179.431 105.164 181.828 106.507L220.077 128.651C222.569 130.089 224.103 132.773 224.103 135.649V179.841C224.103 182.717 222.569 185.401 220.077 186.839L181.828 208.984C180.582 209.559 179.144 209.846 177.802 209.846ZM189.593 179.458C172.817 179.458 169.366 171.789 169.366 165.27C169.366 164.695 169.845 164.12 170.516 164.12H175.501C176.076 164.12 176.555 164.503 176.555 165.079C177.322 170.159 179.527 172.652 189.689 172.652C197.741 172.652 201.192 170.83 201.192 166.516C201.192 164.024 200.233 162.203 187.675 160.956C177.226 159.902 170.708 157.601 170.708 149.261C170.708 141.496 177.226 136.895 188.155 136.895C200.425 136.895 206.464 141.113 207.231 150.316C207.231 150.603 207.135 150.891 206.944 151.178C206.752 151.37 206.464 151.562 206.177 151.562H201.192C200.713 151.562 200.233 151.178 200.138 150.699C198.987 145.427 196.015 143.701 188.155 143.701C179.335 143.701 178.281 146.769 178.281 149.069C178.281 151.85 179.527 152.712 191.414 154.246C203.205 155.78 208.765 157.985 208.765 166.229C208.669 174.665 201.767 179.458 189.593 179.458Z" fill="#539E43"/>
</g>
<defs>
<clipPath id="clip0_602_14">
<rect width="238" height="227" fill="white"/>
</clipPath>
</defs>
</svg>
